<?xml version="1.0" standalone="no"?>
<!DOCTYPE svg PUBLIC "-//W3C//DTD SVG 20010904//EN"
 "http://www.w3.org/TR/2001/REC-SVG-20010904/DTD/svg10.dtd">
<svg version="1.0" xmlns="http://www.w3.org/2000/svg"
 width="512.000000pt" height="450.000000pt" viewBox="0 0 512.000000 450.000000"
 preserveAspectRatio="xMidYMid meet">
<metadata>
Created by potrace 1.16, written by Peter Selinger 2001-2019
</metadata>
<g transform="translate(0.000000,450.000000) scale(0.100000,-0.100000)"
fill="#000000" stroke="none">
<path d="M1642 4150 c-144 -38 -283 -123 -363 -223 -76 -95 -102 -169 -101
-283 l1 -72 -34 -6 c-34 -7 -34 -7 -30 -54 3 -26 6 -73 9 -104 l4 -57 -44 -26
c-43 -25 -44 -27 -38 -68 13 -90 47 -197 64 -197 3 0 15 -7 26 -15 19 -14 18
-14 -5 -31 -13 -9 -81 -65 -150 -124 -151 -129 -291 -272 -350 -359 -89 -131
-138 -323 -147 -576 -5 -131 -10 -173 -29 -230 -68 -205 -89 -342 -89 -575 1
-277 37 -471 118 -633 40 -79 43 -83 106 -115 119 -59 363 -107 609 -119 107
-5 136 -10 191 -33 169 -73 358 -125 555 -156 212 -33 545 -21 762 27 l52 12
237 411 c131 226 244 422 252 436 l15 25 -20 -20 c-11 -11 -152 -182 -313
-380 -261 -320 -349 -426 -313 -375 10 14 266 354 506 670 l111 145 -70 -65
c-38 -36 -200 -189 -359 -340 -160 -151 -299 -281 -310 -289 -11 -8 79 86 200
210 479 488 504 514 445 472 -30 -22 -201 -147 -380 -278 -416 -305 -398 -291
-380 -273 8 9 182 147 385 308 204 161 377 298 385 306 8 8 -152 -79 -355
-192 -505 -281 -515 -286 -515 -281 0 2 189 118 419 258 231 139 419 255 417
256 -1 1 -140 -52 -309 -120 l-306 -122 5 -36 6 -35 -114 -49 -113 -49 -105 3
-105 2 -95 57 c-52 31 -100 61 -107 65 -7 4 -13 4 -13 -2 0 -5 46 -39 103 -74
102 -65 102 -65 195 -72 102 -8 109 -14 68 -62 -23 -27 -29 -28 -125 -31
l-100 -4 -86 62 c-47 34 -88 60 -91 57 -3 -2 31 -34 75 -71 l79 -66 82 0 c90
0 99 -10 40 -44 -22 -13 -58 -21 -111 -24 l-78 -4 -76 62 c-42 34 -78 60 -81
57 -3 -2 28 -32 68 -66 58 -49 79 -61 107 -61 l36 -1 -30 -16 c-68 -38 -156
-17 -258 61 -54 41 -120 56 -248 56 -85 0 -90 1 -125 32 -70 62 -93 168 -58
271 15 46 17 47 181 138 90 50 207 111 259 135 98 46 248 94 292 94 39 0 202
-42 202 -52 0 -16 -120 -86 -139 -81 -31 8 -91 -17 -103 -42 -15 -34 12 -82
90 -157 66 -63 68 -64 147 -77 77 -12 82 -11 142 13 41 17 82 26 118 26 48 0
89 15 364 137 170 76 309 139 307 140 -4 4 -541 -137 -556 -147 -8 -5 -74 -41
-146 -79 l-131 -70 -76 13 c-65 11 -82 19 -121 53 -60 53 -92 93 -79 101 5 4
65 46 134 93 161 111 153 107 146 79 -10 -37 3 -80 24 -80 16 0 17 4 9 26 -15
40 -12 82 8 93 12 8 -19 11 -113 12 -121 2 -125 3 -55 9 41 4 126 8 188 9 103
1 118 3 170 30 31 16 76 34 100 41 23 7 41 14 39 16 -1 1 -123 17 -271 35
-148 18 -264 35 -258 37 6 2 150 -8 319 -22 444 -36 423 -36 433 -16 9 18 -69
40 -610 173 -140 34 -151 48 -14 18 371 -83 759 -160 765 -154 5 5 -180 82
-411 172 -231 90 -419 166 -417 168 3 3 545 -184 847 -292 52 -19 95 -33 96
-32 1 1 -153 87 -344 190 l-346 188 -88 -12 c-201 -27 -480 16 -683 106 l-51
22 -218 739 c-121 406 -221 744 -223 750 -3 8 37 13 124 18 332 18 562 76 842
212 84 42 155 74 157 72 3 -4 164 -514 164 -522 0 -3 -16 -9 -35 -15 -53 -14
-252 -129 -275 -158 -11 -14 -20 -36 -20 -49 0 -20 -10 -26 -79 -48 -117 -37
-236 -50 -371 -41 -200 14 -205 14 -208 -15 -1 -14 36 -149 83 -300 82 -261
89 -277 136 -337 68 -85 104 -113 143 -113 18 0 178 34 356 75 178 42 326 72
330 68 4 -4 15 -41 25 -81 l17 -73 297 -256 c163 -141 312 -270 331 -287 19
-17 27 -22 19 -11 -14 17 -619 745 -639 768 -3 4 -163 -31 -354 -78 -191 -47
-359 -85 -372 -85 -34 0 -69 41 -94 108 -30 79 -38 134 -11 70 30 -70 69 -127
94 -139 18 -8 104 9 412 81 215 50 398 94 407 96 13 4 16 1 12 -10 -3 -8 -23
-17 -45 -21 -21 -4 -39 -10 -39 -15 0 -5 22 -32 48 -62 26 -29 169 -188 317
-353 147 -165 279 -311 292 -325 13 -14 -91 155 -233 375 -141 220 -264 412
-273 427 -9 16 -21 28 -27 28 -21 0 -43 37 -74 122 l-30 87 38 84 39 83 134
67 134 67 -95 -6 c-130 -9 -225 -44 -343 -129 -97 -70 -122 -81 -162 -71 -31
8 -51 46 -38 71 6 9 55 57 109 106 123 110 209 150 344 158 l85 6 -85 5 c-111
7 -196 -13 -357 -81 -117 -49 -127 -52 -151 -38 -36 20 -49 45 -36 67 6 9 64
45 130 79 l119 63 115 1 c63 0 151 -5 194 -10 44 -6 129 -16 190 -21 145 -14
196 -31 281 -96 96 -72 197 -130 272 -155 45 -15 70 -30 88 -53 40 -53 65
-117 65 -173 0 -58 -7 -65 -85 -88 l-40 -12 -6 -84 c-8 -104 -22 -805 -16
-799 2 3 44 222 93 488 49 265 90 478 92 472 2 -5 -2 -42 -8 -82 -30 -193
-130 -874 -129 -883 1 -26 69 205 69 237 0 21 6 40 14 45 8 4 55 136 106 293
101 315 100 308 56 438 -31 92 -60 145 -103 193 -20 22 -34 41 -32 43 2 1 184
45 403 96 363 84 406 92 475 88 87 -5 159 -35 239 -98 44 -35 132 -137 132
-153 0 -4 -28 13 -62 37 -81 56 -177 105 -240 122 -48 12 -54 11 -176 -28
l-127 -40 35 -27 c71 -54 125 -108 182 -184 32 -43 58 -83 58 -88 0 -5 -37 17
-82 50 -229 161 -390 237 -433 201 -12 -10 -9 -19 25 -63 61 -82 100 -192 100
-285 l0 -37 -52 79 c-84 129 -193 236 -241 236 -11 0 -10 -14 5 -72 21 -77 28
-270 14 -378 l-6 -55 55 110 c67 134 65 122 -14 -64 -34 -79 -61 -153 -61
-164 0 -11 -6 -25 -13 -31 -11 -9 -87 -174 -87 -189 0 -2 20 0 45 6 l45 10
146 234 c80 128 148 233 151 233 3 0 -5 -17 -17 -37 -113 -191 -241 -415 -238
-418 7 -8 123 25 133 38 43 57 267 327 271 327 3 0 -52 -74 -121 -165 -69 -91
-121 -165 -116 -165 11 0 135 28 166 37 11 3 50 35 87 71 80 77 92 72 16 -6
-62 -63 -77 -63 161 5 206 59 286 97 360 171 101 101 145 216 144 377 -2 284
-183 505 -439 534 -44 5 -104 19 -134 30 -66 25 -142 27 -201 5 -82 -30 -242
-11 -645 75 -78 17 -168 31 -200 31 -33 1 -94 6 -137 11 -51 7 -96 7 -133 0
-46 -9 -68 -7 -137 11 -66 17 -115 21 -246 22 -161 2 -165 2 -175 25 -8 19 -6
26 13 40 l24 18 -29 81 c-28 78 -30 81 -63 84 -33 3 -36 7 -74 96 l-40 93 -52
-6 -53 -7 -30 44 c-73 107 -206 201 -328 232 -85 22 -230 20 -322 -4z m294
-44 c80 -21 152 -65 229 -138 l70 -66 -41 -39 c-45 -43 -142 -85 -291 -127
-51 -14 -96 -26 -100 -25 -4 0 30 19 76 43 99 51 95 56 -49 65 l-95 6 64 23
c36 12 90 22 120 23 l56 1 -35 16 c-25 11 -64 16 -133 16 -85 1 -96 2 -80 14
51 40 149 55 207 32 32 -12 33 0 4 27 -47 43 -115 61 -269 72 -98 7 -102 8
-74 21 109 48 244 62 341 36z m368 -293 c-53 -43 -262 -143 -381 -183 -189
-63 -413 -101 -655 -113 -38 -2 -65 0 -60 3 4 4 81 21 172 39 340 66 651 156
827 241 103 49 150 56 97 13z m263 -383 l59 -165 -25 -3 c-13 -2 -27 2 -31 8
-7 12 -135 485 -146 540 -5 26 45 -106 143 -380z m-572 -765 c124 20 231 35
236 33 6 -2 -102 -30 -238 -62 -136 -32 -253 -60 -258 -62 -6 -3 -59 69 -118
158 l-108 163 129 -133 130 -132 227 35z m561 15 c-4 -22 5 -58 35 -132 22
-55 38 -103 35 -106 -10 -9 -731 -192 -759 -192 -33 0 -39 11 -67 133 -24 105
-25 121 -6 136 12 11 717 188 755 190 10 1 12 -7 7 -29z m-1597 -264 c97 -75
196 -189 240 -276 102 -205 96 -372 -33 -845 l-43 -160 46 -27 c25 -15 50 -29
56 -31 5 -2 -2 -27 -18 -55 -48 -87 -67 -187 -66 -341 0 -75 4 -157 8 -184 4
-26 5 -47 2 -47 -3 0 -25 26 -49 58 -114 154 -131 276 -50 368 35 39 21 46
-39 18 -48 -23 -80 -75 -99 -163 l-17 -74 -20 38 c-30 59 -34 152 -9 201 19
38 86 106 128 130 30 18 9 28 -60 27 -66 0 -137 -20 -220 -59 -28 -13 -51 -24
-52 -24 -2 0 1 13 7 28 30 87 143 158 271 170 l76 7 -64 75 c-173 200 -171
195 -28 88 50 -37 93 -68 96 -68 11 0 66 143 88 225 75 287 19 591 -162 872
-59 92 -60 93 -53 93 4 0 32 -20 64 -44z"/>
<path d="M2353 2607 c-67 -18 -124 -35 -128 -38 -5 -5 35 -41 129 -118 22 -18
18 -8 -17 42 -27 39 -16 44 37 14 26 -14 46 -23 46 -21 0 3 -9 23 -21 45 -13
26 -15 38 -7 33 7 -4 30 -18 51 -31 42 -26 46 -21 17 22 -27 41 -25 48 10 30
38 -20 37 -20 36 20 -1 42 4 42 -153 2z"/>
<path d="M2026 2536 l-80 -22 30 -20 c16 -11 70 -46 119 -76 l90 -57 69 15
c39 8 71 16 73 18 6 5 -201 166 -212 165 -5 0 -46 -11 -89 -23z"/>
<path d="M1660 3459 c-36 -10 -93 -18 -128 -18 -60 -1 -62 -2 -57 -23 3 -13
28 -112 54 -222 27 -109 55 -203 62 -208 14 -9 285 -6 294 4 4 4 -40 151 -136
456 -6 17 -14 31 -17 31 -4 -1 -36 -10 -72 -20z"/>
<path d="M2872 2787 c-67 -30 -74 -36 -98 -85 -25 -50 -26 -57 -15 -109 16
-82 14 -110 -10 -127 -21 -14 -21 -15 33 -93 30 -43 153 -220 273 -393 120
-173 222 -319 227 -325 5 -5 -15 42 -45 105 -263 559 -332 698 -354 718 -19
18 -29 42 -40 98 l-14 76 35 41 c19 23 51 61 71 85 20 23 31 42 23 41 -7 0
-46 -15 -86 -32z"/>
<path d="M3063 2667 l-41 -30 19 -51 c10 -28 91 -244 180 -481 88 -236 158
-419 155 -405 -2 14 -46 234 -96 490 l-92 465 -42 21 -41 20 -42 -29z"/>
<path d="M3204 2631 c2 -9 51 -216 107 -460 57 -244 105 -438 107 -431 4 10
-48 850 -53 857 -1 2 -38 13 -83 26 -71 21 -82 22 -78 8z"/>
<path d="M2988 2623 c-31 -8 -23 -65 12 -91 58 -43 32 -102 -36 -83 -21 6 -39
9 -41 7 -2 -2 87 -177 198 -390 111 -212 204 -385 205 -383 5 5 -310 947 -316
946 -3 -1 -13 -3 -22 -6z"/>
<path d="M3380 2582 c0 -30 89 -874 93 -878 1 -2 13 187 25 419 13 232 24 432
26 443 2 19 -2 22 -43 22 -25 1 -58 4 -73 7 -23 6 -28 3 -28 -13z"/>
<path d="M3781 2279 c-40 -144 -75 -268 -77 -274 -4 -9 5 -10 31 -6 34 6 37
10 96 136 l61 130 -12 118 c-6 66 -15 128 -19 139 -5 13 -29 -61 -80 -243z"/>
<path d="M2597 2022 l25 -100 282 -187 c176 -117 266 -172 241 -147 -22 21
-141 133 -265 247 -124 115 -244 226 -267 248 l-41 39 25 -100z"/>
<path d="M2537 1876 l-78 -22 183 -89 c101 -49 255 -124 343 -168 88 -43 156
-75 150 -69 -13 13 -514 372 -518 371 -1 0 -37 -11 -80 -23z"/>
<path d="M2755 1280 c-105 -5 -130 -10 -200 -38 -94 -38 -156 -71 -135 -71 25
-1 532 88 538 94 3 3 -10 5 -29 5 -19 0 -39 3 -44 8 -6 4 -64 5 -130 2z"/>
<path d="M2920 1215 c-47 -7 -146 -20 -220 -30 l-135 -17 3 -47 4 -47 241 73
c133 41 247 75 252 78 20 7 -63 2 -145 -10z"/>
<path d="M3040 569 c-138 -221 -254 -408 -257 -415 -7 -19 8 -17 106 14 l84
27 138 330 c77 182 150 356 164 388 13 31 23 57 21 57 -2 0 -117 -181 -256
-401z"/>
<path d="M3185 623 c-88 -190 -168 -362 -177 -383 l-16 -38 71 29 c40 17 77
35 83 42 10 10 206 689 201 694 -1 0 -74 -154 -162 -344z"/>
<path d="M3287 630 c-54 -169 -101 -318 -104 -330 -6 -21 -4 -21 55 9 42 21
63 38 66 54 9 39 86 571 83 573 -1 1 -46 -136 -100 -306z"/>
<path d="M3382 653 c-29 -157 -51 -287 -50 -289 2 -1 24 10 49 26 l46 28 6
258 c3 142 5 259 4 261 -1 1 -26 -127 -55 -284z"/>
<path d="M3481 907 c-1 -53 -20 -372 -25 -424 -2 -24 -1 -43 3 -43 4 0 22 12
40 28 l33 27 -22 210 c-23 230 -27 259 -29 202z"/>
<path d="M3531 930 c-1 -28 28 -412 31 -415 2 -2 16 8 31 21 l29 24 -46 193
c-24 105 -45 185 -45 177z"/>
</g>
</svg>
